<svg xmlns="http://www.w3.org/2000/svg" xmlns:xlink="http://www.w3.org/1999/xlink" version="1.1" x="0px" y="0px" viewBox="0 0 100 125" style="enable-background:new 0 0 100 100;" xml:space="preserve"><g><path d="M91.1,41.3l-3.2,3.2C85.2,24.3,67.9,8.7,47,8.7C24.2,8.7,5.7,27.2,5.7,50S24.2,91.3,47,91.3c12.9,0,24.8-5.9,32.7-16.1   c1-1.3,0.7-3.1-0.5-4.1c-1.3-1-3.1-0.7-4.1,0.5C72.5,75,69.4,77.8,66,80l-1.2-2.1c-0.4-0.7-1.3-0.9-1.9-0.5   c-0.7,0.4-0.9,1.3-0.5,1.9l1.2,2.1c-4.6,2.4-9.7,3.8-15.1,4V83c0-0.8-0.6-1.4-1.4-1.4s-1.4,0.6-1.4,1.4v2.4   c-5.4-0.2-10.5-1.7-15.1-4l1.2-2.1c0.4-0.7,0.2-1.5-0.5-1.9c-0.7-0.4-1.5-0.2-1.9,0.5L28,80c-4.4-2.8-8.2-6.6-11-11l2.1-1.2   c0.7-0.4,0.9-1.3,0.5-1.9c-0.4-0.7-1.3-0.9-1.9-0.5l-2.1,1.2c-2.4-4.5-3.8-9.7-4-15.1H14c0.8,0,1.4-0.6,1.4-1.4s-0.6-1.4-1.4-1.4   h-2.4c0.2-5.4,1.7-10.5,4-15.1l2.1,1.2c0.2,0.1,0.5,0.2,0.7,0.2c0.5,0,1-0.3,1.2-0.7c0.4-0.7,0.2-1.5-0.5-1.9L17,31   c2.8-4.4,6.6-8.2,11-11l1.2,2.1c0.3,0.5,0.7,0.7,1.2,0.7c0.2,0,0.5-0.1,0.7-0.2c0.7-0.4,0.9-1.3,0.5-1.9l-1.2-2.1   c4.5-2.4,9.7-3.8,15.1-4V17c0,0.8,0.6,1.4,1.4,1.4s1.4-0.6,1.4-1.4v-2.4c5.4,0.2,10.5,1.7,15.1,4l-1.2,2.1   c-0.4,0.7-0.2,1.5,0.5,1.9c0.2,0.1,0.5,0.2,0.7,0.2c0.5,0,1-0.3,1.2-0.7L66,20c4.4,2.8,8.2,6.6,11,11l-2.1,1.2   c-0.7,0.4-0.9,1.3-0.5,1.9c0.3,0.5,0.7,0.7,1.2,0.7c0.2,0,0.5-0.1,0.7-0.2l2.1-1.2c1.9,3.6,3.2,7.6,3.8,11.9L78,41.3   c-1.1-1.1-3-1.1-4.1,0c-1.1,1.1-1.1,3,0,4.1l8.6,8.6c0.5,0.5,1.3,0.8,2.1,0.8s1.5-0.3,2.1-0.8l8.6-8.6c1.1-1.1,1.1-3,0-4.1   C94.1,40.1,92.3,40.1,91.1,41.3z"/><path d="M48.1,28.8c-1.6,0-2.9,1.3-2.9,2.9v10.8c-3.4,1.3-5.8,4.6-5.8,8.5c0,5,4.1,9.1,9.1,9.1c1.4,0,2.8-0.3,4-0.9l9,7.1   c0.5,0.4,1.2,0.6,1.8,0.6c0.9,0,1.7-0.4,2.3-1.1c1-1.3,0.8-3.1-0.5-4.1l-8.5-6.6c0.6-1.2,1-2.6,1-4.1c0-4.2-2.8-7.7-6.7-8.8V31.7   C51,30.1,49.7,28.8,48.1,28.8z M51.9,51c0,1.8-1.5,3.3-3.3,3.3s-3.3-1.5-3.3-3.3s1.5-3.3,3.3-3.3S51.9,49.2,51.9,51z"/></g>
</svg>